<?xml version="1.0" encoding="utf-8"?>
<!-- Generator: Adobe Illustrator 24.1.3, SVG Export Plug-In . SVG Version: 6.00 Build 0)  -->
<svg version="1.1" xmlns="http://www.w3.org/2000/svg" xmlns:xlink="http://www.w3.org/1999/xlink" x="0px" y="0px"
	 viewBox="0 0 3840 2271.57" style="enable-background:new 0 0 3840 2271.57;" xml:space="preserve">
<style type="text/css">
	.st0{display:none;}
	.st1{display:inline;stroke:#1D1D1B;stroke-miterlimit:10;}
	.st2{fill:url(#SVGID_1_);}
	.st3{fill:url(#SVGID_2_);}
	.st4{fill:#FFFFFF;}
</style>
<g id="Fundal_Negru" class="st0">
	<rect x="-3.51" class="st1" width="3846.68" height="2271.57"/>
</g>
<g id="Logo">
	<g>
		<g>
			<g>
				
					<radialGradient id="SVGID_1_" cx="2941.9902" cy="265.6544" r="563.2478" gradientTransform="matrix(0.9433 0 0 0.9433 108.884 64.3798)" gradientUnits="userSpaceOnUse">
					<stop  offset="0" style="stop-color:#96D5F3"/>
					<stop  offset="0.4615" style="stop-color:#4D88C7"/>
					<stop  offset="1" style="stop-color:#00AAD7"/>
				</radialGradient>
				<path class="st2" d="M2500.87,415.86c15.9-13.58,39.72-11.69,53.3,4.18c13.51,15.9,11.6,39.75-4.25,53.3
					c-15.9,13.53-39.72,11.67-53.33-4.28C2483.08,453.26,2484.92,429.39,2500.87,415.86"/>
				
					<radialGradient id="SVGID_2_" cx="2942.0125" cy="265.7036" r="563.2189" gradientTransform="matrix(0.9433 0 0 0.9433 108.884 64.3798)" gradientUnits="userSpaceOnUse">
					<stop  offset="0" style="stop-color:#96D5F3"/>
					<stop  offset="0.4615" style="stop-color:#4D88C7"/>
					<stop  offset="1" style="stop-color:#00AAD7"/>
				</radialGradient>
				<path class="st3" d="M2613.13,486.05c33.97-28.97,85.12-24.98,114.14,9.04c29.04,34.09,25.03,85.15-9.01,114.22
					c-34.09,29.02-85.15,24.98-114.26-9.01C2575.02,566.2,2579.11,515.14,2613.13,486.05"/>
			</g>
			<g>
				<path class="st4" d="M3022.22,651.78C2869.47,386.34,2583,207.29,2255.4,207.29c-333.44,0-624.36,185.5-774.94,458.73
					l-38.03,4.08c152.71-293.5,459.81-494.44,812.97-494.44c345.72,0,647.31,192.62,803.11,476.2L3022.22,651.78z"/>
			</g>
			<g>
				<path class="st4" d="M1523.13,657.46 M2961.38,644.92c-148.26-233.67-409.36-389.11-705.98-389.11
					c-301.84,0-566.76,160.83-713.62,401.27l-18.65,0.39c148.5-249.7,421.2-417.46,732.27-417.46
					c305.7,0,574.25,162.01,724.44,404.6L2961.38,644.92z"/>
			</g>
		</g>
		<g>
			<g>
				<path class="st4" d="M27.25,1536.2c0-258.4,0-516.74,0-775.13c45.35,0,68.04,0.02,113.39,0.02
					c21.21,161.79,31.99,241.53,53.71,398.83c5.41,52,8.14,78,13.6,129.66c4.37-52.67,6.55-79.01,10.9-131.35
					c19.74-161.04,29.48-240.44,48.71-397.16c46.51,0,69.76-0.02,116.24-0.02c3.19,281.71,4.79,422.48,7.97,704.17
					c-28.32,4.95-42.53,7.52-70.89,12.66c-2.17-224.35-3.24-336.56-5.36-560.93c-3.58,34.58-5.36,51.88-8.94,86.65
					c-25.51,192.14-38.42,289.88-64.66,489c-26.12,5-39.19,7.54-65.38,12.71c-28.83-194.29-43.06-293.19-71.04-494.9
					c-3.24-33.17-4.86-49.77-8.07-83.09c0.65,237.49,0.97,356.23,1.6,593.75C70.39,1526.97,56.03,1530.02,27.25,1536.2z"/>
				<path class="st4" d="M686.53,1273.97c1.52,96.43-36.53,149.81-114.58,161.77c-78.09,11.96-118.01-32.09-119.31-133.76
					c-1.96-155.34-2.95-233-4.88-388.34c-1.3-101.7,36.82-152.56,114.34-152.56s117.07,48.25,118.59,144.68
					C683.05,1053.07,684.21,1126.67,686.53,1273.97z M602.44,866.42c-0.39-25.61-13.48-38.3-39.34-37.89
					c-25.85,0.39-38.61,13.7-38.27,39.77c2.66,186.49,3.94,279.8,6.57,466.31c0.36,26.12,13.53,37.28,39.53,33.71
					c26-3.6,38.81-18.15,38.42-43.76C606.6,1141.32,605.2,1049.67,602.44,866.42z"/>
				<path class="st4" d="M750.95,1410.2c-4.23-259.6-6.38-389.48-10.58-649.13c45.33,0,68.02,0,113.37,0
					c22.81,136.83,34.21,204.56,56.97,338.83c5.75,44.36,8.6,66.5,14.35,110.64c3.91-44.61,5.9-66.88,9.81-111.34
					c18.27-136.45,27.4-204.05,45.81-338.13c46.49,0,69.73,0,116.27,0c3.67,243.85,5.49,365.72,9.16,609.55
					c-27.67,2.49-41.49,3.77-69.22,6.48c-3.05-192.82-4.59-289.18-7.64-482.04c-3.38,29.67-5.07,44.51-8.46,74.3
					c-24.48,164.4-36.68,247.47-60.96,415.76c-25.47,2.76-38.2,4.16-63.69,7.06c-29.84-166.34-44.82-250.4-74.78-420.94
					c-3.58-28-5.34-42.04-8.91-70.14c3.31,200.07,4.95,300.1,8.26,500.17C792.84,1404.71,778.88,1406.5,750.95,1410.2z"/>
				<path class="st4" d="M1243.52,1299.51c47.19-3.12,70.77-4.52,117.89-7.08c0.24,23.61,0.39,35.37,0.63,58.98
					c-77.66,4.64-116.51,7.44-194.46,13.92c-3.43-241.7-5.17-362.53-8.65-604.25c78.67,0,118.01,0,196.73,0
					c0.24,23.63,0.34,35.4,0.63,59c-47.62,0.29-71.42,0.46-119.02,0.82c1.06,81.38,1.55,122.04,2.63,203.4
					c26.99-0.89,40.52-1.33,67.49-2.05c0.29,23.7,0.39,35.57,0.68,59.32c-26.94,0.96-40.4,1.45-67.36,2.51
					C1241.83,1170.21,1242.39,1213.37,1243.52,1299.51z"/>
				<path class="st4" d="M1491.21,1001.75c-5.63-31.12-8.46-46.66-14.11-77.85c1.35,168.53,2.06,252.74,3.43,421.25
					c-27.5,1.26-41.27,2.01-68.77,3.46c-2.32-235.01-3.48-352.48-5.77-587.54c37.21,0,55.84,0,93.05,0
					c32.76,132.97,49,199,81.26,330.66c6.36,34.96,9.55,52.48,15.83,87.4c-0.82-167.25-1.3-250.83-2.15-418.06
					c27.91,0,41.87,0,69.78,0c0.75,231.06,1.14,346.61,1.86,577.68c-36.58,0.85-54.9,1.38-91.53,2.64
					C1541.23,1206.14,1524.65,1138.32,1491.21,1001.75z"/>
				<path class="st4" d="M1697.66,761.07c93,0,139.52,0,232.54,0c-0.1,23.03-0.17,34.5-0.29,57.53c-30.93-0.02-46.39,0-77.37,0
					c-0.44,207.1-0.65,310.61-1.09,517.71c-30.47,0.07-45.74,0.17-76.23,0.48c0-207.24-0.05-310.87-0.05-518.14
					c-30.98,0.02-46.44,0.07-77.42,0.12C1697.71,795.72,1697.71,784.17,1697.66,761.07z"/>
				<path class="st4" d="M2037.67,1280.27c46.97,0.8,70.51,1.33,117.48,2.68c-0.24,23.17-0.41,34.75-0.65,57.94
					c-77.44-2.51-116.1-3.38-193.49-4.18c1.23-230.27,1.81-345.35,3.07-575.65c78.67,0,118.01,0,196.68,0
					c-0.24,23.2-0.34,34.79-0.6,57.99c-47.62-0.14-71.42-0.27-119-0.31c-0.58,78.43-0.87,117.67-1.45,196.13
					c26.92,0.24,40.35,0.31,67.32,0.68c-0.24,23.1-0.34,34.65-0.55,57.8c-26.89-0.39-40.38-0.53-67.29-0.82
					C2038.54,1155.6,2038.3,1197.2,2037.67,1280.27z"/>
				<path class="st4" d="M2472.02,854.82c0.39-22.81-10.37-34.29-32.28-34.43c-21.94-0.17-33.1,11.14-33.49,33.8
					c-0.53,32.21-0.77,48.3-1.31,80.51c-0.43,25.64,22.76,62.85,69.44,112.98c46.66,50.16,69.59,93.78,68.91,129.29
					c-0.43,21.02-0.6,31.53-1.01,52.56c-1.69,88.1-38.95,129.15-111.7,124.58c-72.76-4.59-108.47-49.27-107.16-135.31
					c0.44-29.04,0.68-43.59,1.11-72.63c30.74,1.04,46.1,1.62,76.84,2.8c-0.72,44-1.04,66.11-1.79,110.13
					c-0.36,22.66,10.3,34.5,32.04,35.74c21.7,1.19,32.76-9.45,33.17-32.28c0.46-27.4,0.73-41.15,1.21-68.52
					c0.65-36.7-22.35-79.83-69.03-128.01c-46.73-48.21-69.83-93.94-69.15-138.45c0.22-14.96,0.34-22.4,0.55-37.36
					c1.28-86.07,38.73-129.15,112.38-129.15c73.65,0,109.65,44.05,107.98,132.12c-0.41,21.91-0.65,32.91-1.09,54.82
					c-30.88-0.72-46.34-1.06-77.22-1.69C2471.1,909.69,2471.34,891.43,2472.02,854.82z"/>
				<path class="st4" d="M2585.1,761.07c93.05,0,139.54,0,232.59,0c-0.56,24.98-0.8,37.45-1.35,62.39
					c-30.98-0.31-46.49-0.43-77.51-0.75c-4.69,221.96-6.98,332.91-11.7,554.82c-30.81-2.92-46.2-4.37-76.93-7.03
					c4.44-219.4,6.72-329.09,11.19-548.49c-31-0.24-46.46-0.41-77.44-0.63C2584.42,797.24,2584.62,785.21,2585.1,761.07z"/>
				<path class="st4" d="M3006.59,761.07c31.03,0,46.49,0,77.52,0c-4.21,204.29-6.33,306.45-10.54,510.75
					c-2.01,96.05-41.95,138.81-119.46,129.7c-77.54-9.06-115.16-58.93-113.18-150.97c4.21-195.79,6.4-293.67,10.63-489.48
					c31.02,0,46.56,0,77.59,0c-4.64,214.34-6.98,321.56-11.62,535.88c-0.53,24.38,12.11,37.91,37.94,40.62
					c25.86,2.73,39.05-8.24,39.58-32.98C2999.68,1087.22,3001.97,978.46,3006.59,761.07z"/>
				<path class="st4" d="M3370.14,1304.85c-1.57,102.23-41.7,147.03-120.04,135.62c-46.97-6.84-70.41-10.12-117.19-16.43
					c5.27-265.18,7.93-397.74,13.22-662.97c46.51,0,69.81,0,116.29,0c77.51,0,115.45,51.18,113.9,153.41
					C3373.88,1070.64,3372.56,1148.69,3370.14,1304.85z M3299.25,869.01c0.48-26.27-12.18-39.63-38.03-40.01
					c-15.51-0.24-23.34-0.29-38.85-0.53c-4.06,215.65-6.09,323.44-10.15,539.04c15.63,2.01,23.49,3.02,39.12,5.07
					c26.07,3.41,39.31-7.93,39.77-34.19C3294.36,1150.64,3296.01,1056.72,3299.25,869.01z"/>
				<path class="st4" d="M3430.83,1468.26c3.94-282.87,5.9-424.32,9.81-707.19c31.02,0,46.54,0,77.54,0
					c-3.34,288.14-5,432.17-8.34,720.26C3478.19,1475.99,3462.39,1473.38,3430.83,1468.26z"/>
				<path class="st4" d="M3812.75,1365.67c0,113.71-40.3,162.59-120.14,147.88c-79.83-14.67-118.88-75-117.86-182.24
					c1.55-163.75,2.37-245.64,3.91-409.39c1.02-107.21,40.3-160.85,117.82-160.85c77.51,0,116.24,56.88,116.24,170.56
					C3812.72,1105.24,3812.75,1192.06,3812.75,1365.67z M3734.75,880.75c0.1-29.12-12.76-43.95-38.66-44.44
					c-25.95-0.48-38.97,13.58-39.14,42.16c-1.35,204.15-2.03,306.31-3.36,510.51c-0.17,28.56,12.88,44.97,39.46,49.36
					c26.51,4.4,39.82-7.92,39.92-37.06C3733.69,1193.1,3734.05,1088.93,3734.75,880.75z"/>
			</g>
		</g>
		<polygon class="st4" points="2919.41,0 2919.41,44.29 3465.58,44.29 3465.58,590.39 3509.85,590.39 3509.85,0 		"/>
		<polygon class="st4" points="374.45,44.29 920.59,44.29 920.59,0 330.16,0 330.16,590.44 374.45,590.44 		"/>
		<polygon class="st4" points="374.45,1681.16 330.16,1681.16 330.16,2271.57 920.59,2271.57 920.59,2227.3 374.45,2227.3 		"/>
		<polygon class="st4" points="3465.58,2227.3 2919.41,2227.3 2919.41,2271.57 3509.85,2271.57 3509.85,1681.16 3465.58,1681.16 		
			"/>
		<polygon class="st4" points="3381.59,328.61 3381.59,129.68 3182.64,129.68 3182.64,154.57 3356.7,154.57 3356.7,328.61 		"/>
		<polygon class="st4" points="657.34,129.68 458.48,129.68 458.48,328.61 483.32,328.61 483.32,154.57 657.34,154.57 		"/>
		<polygon class="st4" points="458.48,1942.98 458.48,2141.93 657.34,2141.93 657.34,2117.05 483.35,2117.05 483.35,1942.98 		"/>
		<polygon class="st4" points="3182.64,2141.93 3381.59,2141.93 3381.59,1942.98 3356.7,1942.98 3356.7,2117.05 3182.64,2117.05 		
			"/>
		<g>
			<g>
				<path class="st4" d="M3835.75,1610.75c-1253.31-300.9-2578.19-300.9-3831.52,0L0,1593.01
					c628.11-150.78,1274.07-227.22,1920.03-227.22c645.84,0,1291.85,76.45,1919.98,227.22L3835.75,1610.75z"/>
			</g>
		</g>
	</g>
</g>
</svg>
