<?xml version="1.0" encoding="utf-8"?>
<!-- Generator: Adobe Illustrator 24.1.3, SVG Export Plug-In . SVG Version: 6.00 Build 0)  -->
<svg version="1.1" id="Layer_1" xmlns="http://www.w3.org/2000/svg" xmlns:xlink="http://www.w3.org/1999/xlink" x="0px" y="0px"
	 viewBox="0 0 195 115.35" style="enable-background:new 0 0 195 115.35;" xml:space="preserve">
<style type="text/css">
	.st0{fill:url(#SVGID_1_);}
	.st1{fill:url(#SVGID_2_);}
	.st2{fill:#010202;}
</style>
<g>
	<g>
		<g>
			
				<radialGradient id="SVGID_1_" cx="149.4473" cy="13.5134" r="28.6024" gradientTransform="matrix(0.9433 0 0 0.9433 5.4827 3.2475)" gradientUnits="userSpaceOnUse">
				<stop  offset="0" style="stop-color:#98D6F4"/>
				<stop  offset="0.4615" style="stop-color:#4E8AC8"/>
				<stop  offset="1" style="stop-color:#00ABD7"/>
			</radialGradient>
			<path class="st0" d="M127,21.12c0.81-0.69,2.02-0.59,2.71,0.21c0.69,0.81,0.59,2.02-0.22,2.71c-0.81,0.69-2.02,0.59-2.71-0.22
				C126.09,23.02,126.19,21.81,127,21.12"/>
			
				<radialGradient id="SVGID_2_" cx="149.4484" cy="13.5159" r="28.6009" gradientTransform="matrix(0.9433 0 0 0.9433 5.4827 3.2475)" gradientUnits="userSpaceOnUse">
				<stop  offset="0" style="stop-color:#98D6F4"/>
				<stop  offset="0.4615" style="stop-color:#4E8AC8"/>
				<stop  offset="1" style="stop-color:#00ABD7"/>
			</radialGradient>
			<path class="st1" d="M132.7,24.68c1.73-1.47,4.32-1.27,5.8,0.46c1.47,1.73,1.27,4.32-0.46,5.8c-1.73,1.47-4.32,1.27-5.8-0.46
				C130.76,28.75,130.97,26.16,132.7,24.68"/>
		</g>
		<g>
			<path class="st2" d="M153.47,33.1c-7.76-13.48-22.3-22.57-38.94-22.57c-16.93,0-31.71,9.42-39.35,23.29l-1.93,0.21
				C81,19.12,96.6,8.92,114.53,8.92c17.56,0,32.87,9.78,40.78,24.18L153.47,33.1z"/>
		</g>
		<g>
			<path class="st2" d="M77.35,33.39 M150.38,32.75c-7.53-11.87-20.79-19.76-35.85-19.76c-15.33,0-28.78,8.17-36.24,20.38
				l-0.95,0.02c7.54-12.68,21.39-21.2,37.19-21.2c15.52,0,29.16,8.23,36.79,20.55L150.38,32.75z"/>
		</g>
	</g>
	<g>
		<g>
			<path class="st2" d="M1.38,78.01c0-13.12,0-26.24,0-39.36c2.3,0,3.46,0,5.76,0c1.08,8.22,1.62,12.27,2.73,20.25
				c0.27,2.64,0.41,3.96,0.69,6.58c0.22-2.67,0.33-4.01,0.55-6.67c1-8.18,1.5-12.21,2.47-20.17c2.36,0,3.54,0,5.9,0
				c0.16,14.31,0.24,21.45,0.4,35.76c-1.44,0.25-2.16,0.38-3.6,0.64c-0.11-11.39-0.16-17.09-0.27-28.48
				c-0.18,1.76-0.27,2.63-0.45,4.4c-1.3,9.76-1.95,14.72-3.28,24.83c-1.33,0.25-1.99,0.38-3.32,0.65
				C7.5,66.57,6.78,61.55,5.36,51.31c-0.16-1.68-0.25-2.53-0.41-4.22C4.98,59.15,5,65.18,5.03,77.24
				C3.57,77.54,2.85,77.7,1.38,78.01z"/>
			<path class="st2" d="M34.86,64.69c0.08,4.9-1.86,7.61-5.82,8.21c-3.97,0.61-5.99-1.63-6.06-6.79c-0.1-7.89-0.15-11.83-0.25-19.72
				c-0.07-5.16,1.87-7.75,5.81-7.75s5.94,2.45,6.02,7.35C34.69,53.48,34.74,57.21,34.86,64.69z M30.59,44
				c-0.02-1.3-0.68-1.94-2-1.92c-1.31,0.02-1.96,0.7-1.94,2.02c0.14,9.47,0.2,14.21,0.33,23.68c0.02,1.33,0.69,1.89,2.01,1.71
				c1.32-0.18,1.97-0.92,1.95-2.22C30.8,57.96,30.73,53.3,30.59,44z"/>
			<path class="st2" d="M38.13,71.61c-0.21-13.18-0.32-19.78-0.54-32.96c2.3,0,3.45,0,5.76,0c1.16,6.95,1.74,10.39,2.89,17.21
				c0.29,2.25,0.44,3.38,0.73,5.62c0.2-2.27,0.3-3.4,0.5-5.65c0.93-6.93,1.39-10.36,2.33-17.17c2.36,0,3.54,0,5.9,0
				c0.19,12.38,0.28,18.57,0.47,30.95c-1.4,0.13-2.11,0.19-3.52,0.33c-0.15-9.79-0.23-14.68-0.39-24.48
				c-0.17,1.51-0.26,2.26-0.43,3.77c-1.24,8.35-1.86,12.57-3.1,21.11c-1.29,0.14-1.94,0.21-3.23,0.36
				c-1.52-8.45-2.28-12.72-3.8-21.38c-0.18-1.42-0.27-2.13-0.45-3.56c0.17,10.16,0.25,15.24,0.42,25.4
				C40.26,71.33,39.55,71.42,38.13,71.61z"/>
			<path class="st2" d="M63.15,65.99c2.4-0.16,3.59-0.23,5.99-0.36c0.01,1.2,0.02,1.8,0.03,3c-3.94,0.24-5.92,0.38-9.87,0.71
				c-0.17-12.27-0.26-18.41-0.44-30.68c4,0,5.99,0,9.99,0c0.01,1.2,0.02,1.8,0.03,3c-2.42,0.01-3.63,0.02-6.04,0.04
				c0.05,4.13,0.08,6.2,0.13,10.33c1.37-0.05,2.06-0.07,3.43-0.1c0.01,1.2,0.02,1.81,0.03,3.01C65.06,54.97,64.37,55,63,55.05
				C63.06,59.42,63.09,61.62,63.15,65.99z"/>
			<path class="st2" d="M75.73,50.87c-0.29-1.58-0.43-2.37-0.72-3.95c0.07,8.56,0.1,12.83,0.17,21.39c-1.4,0.06-2.1,0.1-3.49,0.18
				c-0.12-11.93-0.18-17.9-0.29-29.84c1.89,0,2.84,0,4.73,0c1.66,6.75,2.49,10.11,4.13,16.79c0.32,1.78,0.48,2.67,0.8,4.44
				c-0.04-8.49-0.07-12.74-0.11-21.23c1.42,0,2.13,0,3.54,0c0.04,11.73,0.06,17.6,0.09,29.34c-1.86,0.04-2.79,0.07-4.65,0.13
				C78.27,61.25,77.42,57.81,75.73,50.87z"/>
			<path class="st2" d="M86.21,38.65c4.72,0,7.08,0,11.81,0c0,1.17-0.01,1.75-0.01,2.92c-1.57,0-2.36,0-3.93,0
				c-0.02,10.52-0.03,15.77-0.06,26.29c-1.55,0-2.32,0.01-3.87,0.02c0-10.52,0-15.79,0-26.31c-1.57,0-2.36,0-3.93,0.01
				C86.21,40.41,86.21,39.82,86.21,38.65z"/>
			<path class="st2" d="M103.48,65.01c2.39,0.04,3.58,0.07,5.97,0.14c-0.01,1.18-0.02,1.76-0.03,2.94c-3.93-0.13-5.9-0.17-9.83-0.21
				c0.06-11.69,0.09-17.54,0.16-29.23c4,0,5.99,0,9.99,0c-0.01,1.18-0.02,1.77-0.03,2.94c-2.42-0.01-3.63-0.01-6.04-0.02
				c-0.03,3.98-0.04,5.98-0.07,9.96c1.37,0.01,2.05,0.02,3.42,0.03c-0.01,1.17-0.02,1.76-0.03,2.94c-1.37-0.02-2.05-0.03-3.42-0.04
				C103.52,58.68,103.51,60.8,103.48,65.01z"/>
			<path class="st2" d="M125.53,43.41c0.02-1.16-0.53-1.74-1.64-1.75c-1.11-0.01-1.68,0.57-1.7,1.72c-0.03,1.64-0.04,2.45-0.07,4.09
				c-0.02,1.3,1.16,3.19,3.53,5.74c2.37,2.55,3.53,4.76,3.5,6.57c-0.02,1.07-0.03,1.6-0.05,2.67c-0.09,4.47-1.98,6.56-5.67,6.33
				c-3.69-0.23-5.51-2.5-5.44-6.87c0.02-1.47,0.03-2.21,0.06-3.69c1.56,0.05,2.34,0.08,3.9,0.14c-0.04,2.23-0.05,3.36-0.09,5.59
				c-0.02,1.15,0.52,1.75,1.63,1.81c1.1,0.06,1.66-0.48,1.68-1.64c0.02-1.39,0.04-2.09,0.06-3.48c0.03-1.86-1.13-4.05-3.51-6.5
				c-2.37-2.45-3.55-4.77-3.51-7.03c0.01-0.76,0.02-1.14,0.03-1.9c0.07-4.37,1.97-6.56,5.71-6.56c3.74,0,5.57,2.24,5.48,6.71
				c-0.02,1.11-0.03,1.67-0.06,2.78c-1.57-0.04-2.35-0.05-3.92-0.09C125.49,46.2,125.5,45.27,125.53,43.41z"/>
			<path class="st2" d="M131.27,38.65c4.73,0,7.09,0,11.81,0c-0.03,1.27-0.04,1.9-0.07,3.17c-1.57-0.02-2.36-0.02-3.94-0.04
				c-0.24,11.27-0.35,16.91-0.59,28.17c-1.56-0.15-2.35-0.22-3.91-0.36c0.23-11.14,0.34-16.71,0.57-27.85
				c-1.57-0.01-2.36-0.02-3.93-0.03C131.24,40.49,131.25,39.87,131.27,38.65z"/>
			<path class="st2" d="M152.68,38.65c1.58,0,2.36,0,3.94,0c-0.21,10.37-0.32,15.56-0.54,25.94c-0.1,4.88-2.13,7.05-6.07,6.59
				c-3.94-0.46-5.85-2.99-5.75-7.67c0.21-9.94,0.33-14.91,0.54-24.86c1.58,0,2.36,0,3.94,0c-0.24,10.88-0.35,16.33-0.59,27.21
				c-0.03,1.24,0.61,1.93,1.93,2.06c1.31,0.14,1.98-0.42,2.01-1.67C152.33,55.21,152.44,49.69,152.68,38.65z"/>
			<path class="st2" d="M171.14,66.26c-0.08,5.19-2.12,7.47-6.1,6.89c-2.39-0.35-3.58-0.51-5.95-0.83
				c0.27-13.47,0.4-20.2,0.67-33.67c2.36,0,3.54,0,5.91,0c3.94,0,5.86,2.6,5.78,7.79C171.33,54.37,171.26,58.33,171.14,66.26z
				 M167.54,44.13c0.02-1.33-0.62-2.01-1.93-2.03c-0.79-0.01-1.19-0.01-1.97-0.03c-0.21,10.95-0.31,16.42-0.52,27.37
				c0.79,0.1,1.19,0.15,1.99,0.26c1.32,0.17,2-0.4,2.02-1.74C167.29,58.43,167.38,53.66,167.54,44.13z"/>
			<path class="st2" d="M174.22,74.56c0.2-14.36,0.3-21.55,0.5-35.91c1.58,0,2.36,0,3.94,0c-0.17,14.63-0.25,21.95-0.42,36.58
				C176.63,74.95,175.82,74.82,174.22,74.56z"/>
			<path class="st2" d="M193.62,69.35c0,5.77-2.05,8.26-6.1,7.51c-4.05-0.74-6.04-3.81-5.99-9.25c0.08-8.32,0.12-12.47,0.2-20.79
				c0.05-5.44,2.05-8.17,5.98-8.17c3.94,0,5.9,2.89,5.9,8.66C193.61,56.13,193.62,60.53,193.62,69.35z M189.66,44.73
				c0-1.48-0.65-2.23-1.96-2.26c-1.32-0.02-1.98,0.69-1.99,2.14c-0.07,10.37-0.1,15.55-0.17,25.92c-0.01,1.45,0.65,2.28,2,2.51
				c1.35,0.22,2.02-0.4,2.03-1.88C189.6,60.59,189.62,55.3,189.66,44.73z"/>
		</g>
	</g>
	<polygon class="st2" points="148.25,0 148.25,2.25 175.99,2.25 175.99,29.98 178.23,29.98 178.23,0 	"/>
	<polygon class="st2" points="19.01,2.25 46.75,2.25 46.75,0 16.77,0 16.77,29.98 19.01,29.98 	"/>
	<polygon class="st2" points="19.01,85.37 16.77,85.37 16.77,115.35 46.75,115.35 46.75,113.11 19.01,113.11 	"/>
	<polygon class="st2" points="175.99,113.11 148.25,113.11 148.25,115.35 178.23,115.35 178.23,85.37 175.99,85.37 	"/>
	<polygon class="st2" points="171.72,16.69 171.72,6.59 161.62,6.59 161.62,7.85 170.46,7.85 170.46,16.69 	"/>
	<polygon class="st2" points="33.38,6.59 23.28,6.59 23.28,16.69 24.54,16.69 24.54,7.85 33.38,7.85 	"/>
	<polygon class="st2" points="23.28,98.67 23.28,108.77 33.38,108.77 33.38,107.51 24.54,107.51 24.54,98.67 	"/>
	<polygon class="st2" points="161.62,108.77 171.72,108.77 171.72,98.67 170.46,98.67 170.46,107.51 161.62,107.51 	"/>
	<g>
		<g>
			<path class="st2" d="M194.78,81.8c-63.64-15.28-130.92-15.28-194.57,0L0,80.9c31.9-7.66,64.7-11.54,97.5-11.54
				c32.8,0,65.6,3.88,97.5,11.54L194.78,81.8z"/>
		</g>
	</g>
</g>
</svg>
